<svg width="64" height="64" viewBox="0 0 64 64" fill="none" xmlns="http://www.w3.org/2000/svg">
    <rect width="64" height="64" rx="8" fill="black" />
    <path
        d="M22.4233 12.1049C21.8606 12.3639 21.5748 12.8641 21.5748 13.5965V14.0342H19.1363C17.2338 14.0342 16.5818 14.061 16.1709 14.1682C14.6882 14.5612 13.4198 15.8921 13.0983 17.4105C13.0357 17.6963 13 18.8575 13 20.3313V22.7876H50.1575V20.3045C50.1575 17.6159 50.1128 17.2408 49.6483 16.3029C49.3625 15.7045 48.5497 14.8738 47.9512 14.5522C47.1116 14.0878 46.674 14.0342 44.0211 14.0342H41.5827V13.5876C41.5827 12.9891 41.404 12.5961 40.9932 12.2835C40.7163 12.0691 40.5733 12.0245 40.1446 12.0245C39.2871 12.0245 38.7959 12.5157 38.7423 13.4536L38.7065 14.0342H33.0079V13.5876C33.0079 12.9891 32.8292 12.5961 32.4184 12.2835C32.1415 12.0691 31.9985 12.0245 31.5698 12.0245C30.7123 12.0245 30.2211 12.5157 30.1675 13.4536L30.1317 14.0342H24.4331V13.5876C24.4331 12.9891 24.2544 12.5961 23.8614 12.2924C23.4684 11.9977 22.8342 11.9083 22.4233 12.1049ZM24.4331 15.8653C24.4331 17.8839 24.3973 18.0804 23.9061 18.5449C23.647 18.786 23.5667 18.8128 23.0039 18.8128C22.4412 18.8128 22.3608 18.786 22.1018 18.5449C21.6105 18.0804 21.5748 17.8839 21.5748 15.8653V14.0342H24.4331V15.8653ZM33.0079 15.8653C33.0079 17.8839 32.9721 18.0804 32.4809 18.5449C32.2218 18.786 32.1415 18.8128 31.5787 18.8128C31.016 18.8128 30.9356 18.786 30.6766 18.5449C30.1853 18.0804 30.1496 17.8839 30.1496 15.8653V14.0342H33.0079V15.8653ZM41.5827 15.8653C41.5827 17.8839 41.5469 18.0804 41.0557 18.5449C40.7966 18.786 40.7163 18.8128 40.1535 18.8128C39.5908 18.8128 39.5104 18.786 39.2514 18.5449C38.7601 18.0804 38.7244 17.8839 38.7244 15.8653V14.0342H41.5827V15.8653Z"
        fill="white" />
    <path
        d="M13 36.9271C13 46.6363 13.0179 48.2798 13.134 48.7175C13.5538 50.3163 14.9025 51.6025 16.4746 51.9062C17.1266 52.0313 46.013 52.0313 46.6829 51.9062C48.3085 51.6025 49.7555 50.1555 50.0681 48.521C50.1217 48.2083 50.1575 44.0906 50.1575 36.8467V25.6459H13V36.9271ZM25.1655 29.0222C25.5228 29.2455 25.8622 29.835 25.8622 30.2459C25.8622 30.5943 25.5496 31.1927 25.2548 31.4071C25.0315 31.5768 24.8707 31.5857 23.0039 31.5857C21.1371 31.5857 20.9764 31.5768 20.753 31.4071C20.4583 31.1927 20.1457 30.5943 20.1457 30.2459C20.1457 29.8976 20.4583 29.2991 20.7441 29.0937C21.1103 28.8257 21.4855 28.7811 23.2272 28.7989C24.7278 28.8168 24.8529 28.8346 25.1655 29.0222ZM33.7403 29.0222C34.0976 29.2455 34.437 29.835 34.437 30.2459C34.437 30.5943 34.1244 31.1927 33.8296 31.4071C33.6063 31.5768 33.4455 31.5857 31.5787 31.5857C29.7119 31.5857 29.5512 31.5768 29.3278 31.4071C29.0331 31.1927 28.7205 30.5943 28.7205 30.2459C28.7205 29.8976 29.0331 29.2991 29.3189 29.0937C29.6851 28.8257 30.0603 28.7811 31.802 28.7989C33.3026 28.8168 33.4277 28.8346 33.7403 29.0222ZM42.3151 29.0222C42.6724 29.2455 43.0118 29.835 43.0118 30.2459C43.0118 30.5943 42.6992 31.1927 42.4044 31.4071C42.1811 31.5768 42.0203 31.5857 40.1535 31.5857C38.2867 31.5857 38.126 31.5768 37.9027 31.4071C37.6079 31.1927 37.2953 30.5943 37.2953 30.2459C37.2953 29.8976 37.6079 29.2991 37.8937 29.0937C38.2599 28.8257 38.6351 28.7811 40.3768 28.7989C41.8774 28.8168 42.0025 28.8346 42.3151 29.0222ZM25.1655 36.1679C25.5228 36.3912 25.8622 36.9807 25.8622 37.3916C25.8622 37.7399 25.5496 38.3384 25.2548 38.5527C25.0315 38.7225 24.8707 38.7314 23.0039 38.7314C21.1371 38.7314 20.9764 38.7225 20.753 38.5527C20.4583 38.3384 20.1457 37.7399 20.1457 37.3916C20.1457 37.0432 20.4583 36.4448 20.7441 36.2393C21.1103 35.9714 21.4855 35.9267 23.2272 35.9446C24.7278 35.9624 24.8529 35.9803 25.1655 36.1679ZM33.7403 36.1679C34.0976 36.3912 34.437 36.9807 34.437 37.3916C34.437 37.7399 34.1244 38.3384 33.8296 38.5527C33.6063 38.7225 33.4455 38.7314 31.5787 38.7314C29.7119 38.7314 29.5512 38.7225 29.3278 38.5527C29.0331 38.3384 28.7205 37.7399 28.7205 37.3916C28.7205 37.0432 29.0331 36.4448 29.3189 36.2393C29.6851 35.9714 30.0603 35.9267 31.802 35.9446C33.3026 35.9624 33.4277 35.9803 33.7403 36.1679ZM42.3151 36.1679C42.6724 36.3912 43.0118 36.9807 43.0118 37.3916C43.0118 37.7399 42.6992 38.3384 42.4044 38.5527C42.1811 38.7225 42.0203 38.7314 40.1535 38.7314C38.2867 38.7314 38.126 38.7225 37.9027 38.5527C37.6079 38.3384 37.2953 37.7399 37.2953 37.3916C37.2953 37.0432 37.6079 36.4448 37.8937 36.2393C38.2599 35.9714 38.6351 35.9267 40.3768 35.9446C41.8774 35.9624 42.0025 35.9803 42.3151 36.1679ZM25.1655 43.3135C25.5228 43.5369 25.8622 44.1264 25.8622 44.5372C25.8622 44.8856 25.5496 45.484 25.2548 45.6984C25.0315 45.8681 24.8707 45.8771 23.0039 45.8771C21.1371 45.8771 20.9764 45.8681 20.753 45.6984C20.4583 45.484 20.1457 44.8856 20.1457 44.5372C20.1457 44.1889 20.4583 43.5904 20.7441 43.385C21.1103 43.117 21.4855 43.0724 23.2272 43.0902C24.7278 43.1081 24.8529 43.126 25.1655 43.3135ZM33.7403 43.3135C34.0976 43.5369 34.437 44.1264 34.437 44.5372C34.437 44.8856 34.1244 45.484 33.8296 45.6984C33.6063 45.8681 33.4455 45.8771 31.5787 45.8771C29.7119 45.8771 29.5512 45.8681 29.3278 45.6984C29.0331 45.484 28.7205 44.8856 28.7205 44.5372C28.7205 44.1889 29.0331 43.5904 29.3189 43.385C29.6851 43.117 30.0603 43.0724 31.802 43.0902C33.3026 43.1081 33.4277 43.126 33.7403 43.3135ZM42.3151 43.3135C42.6724 43.5369 43.0118 44.1264 43.0118 44.5372C43.0118 44.8856 42.6992 45.484 42.4044 45.6984C42.1811 45.8681 42.0203 45.8771 40.1535 45.8771C38.2867 45.8771 38.126 45.8681 37.9027 45.6984C37.6079 45.484 37.2953 44.8856 37.2953 44.5372C37.2953 44.1889 37.6079 43.5904 37.8937 43.385C38.2599 43.117 38.6351 43.0724 40.3768 43.0902C41.8774 43.1081 42.0025 43.126 42.3151 43.3135Z"
        fill="white" />
</svg>
    