<svg width="91" height="25" viewBox="0 0 91 25" fill="none" xmlns="http://www.w3.org/2000/svg">
    <path
        d="M5.6667 0.152754C5.32907 0.308173 5.15758 0.608291 5.15758 1.04775V1.31035H3.6945C2.55298 1.31035 2.16175 1.32643 1.91523 1.39074C1.02559 1.62655 0.26458 2.42508 0.0716471 3.33615C0.0341323 3.50764 0.0126953 4.20435 0.0126953 5.08862V6.56242H22.3072V5.07255C22.3072 3.45941 22.2804 3.23432 22.0017 2.6716C21.8302 2.31253 21.3425 1.81412 20.9834 1.62119C20.4797 1.34251 20.2171 1.31035 18.6254 1.31035H17.1623V1.04239C17.1623 0.68332 17.0551 0.447513 16.8086 0.259939C16.6424 0.131317 16.5567 0.104521 16.2995 0.104521C15.785 0.104521 15.4902 0.39928 15.4581 0.962001L15.4366 1.31035H12.0174V1.04239C12.0174 0.68332 11.9102 0.447513 11.6637 0.259939C11.4976 0.131317 11.4118 0.104521 11.1546 0.104521C10.6401 0.104521 10.3453 0.39928 10.3132 0.962001L10.2917 1.31035H6.87254V1.04239C6.87254 0.68332 6.76535 0.447513 6.52954 0.265299C6.29374 0.0884435 5.91323 0.034851 5.6667 0.152754ZM6.87254 2.409C6.87254 3.62019 6.8511 3.73809 6.55634 4.01677C6.40092 4.16147 6.35269 4.17755 6.01506 4.17755C5.67742 4.17755 5.62919 4.16147 5.47377 4.01677C5.17901 3.73809 5.15758 3.62019 5.15758 2.409V1.31035H6.87254V2.409ZM12.0174 2.409C12.0174 3.62019 11.996 3.73809 11.7012 4.01677C11.5458 4.16147 11.4976 4.17755 11.1599 4.17755C10.8223 4.17755 10.7741 4.16147 10.6187 4.01677C10.3239 3.73809 10.3025 3.62019 10.3025 2.409V1.31035H12.0174V2.409ZM17.1623 2.409C17.1623 3.62019 17.1409 3.73809 16.8461 4.01677C16.6907 4.16147 16.6424 4.17755 16.3048 4.17755C15.9672 4.17755 15.9189 4.16147 15.7635 4.01677C15.4688 3.73809 15.4473 3.62019 15.4473 2.409V1.31035H17.1623V2.409Z"
        fill="white" />
    <path
        d="M0.0126953 15.0461C0.0126953 20.8716 0.0234138 21.8577 0.0930841 22.1203C0.344969 23.0796 1.15422 23.8514 2.09744 24.0336C2.48867 24.1086 19.8205 24.1086 20.2224 24.0336C21.1978 23.8514 22.066 22.9832 22.2536 22.0024C22.2857 21.8148 22.3072 19.3442 22.3072 14.9979V8.27738H0.0126953V15.0461ZM7.31199 10.3032C7.52636 10.4372 7.73002 10.7909 7.73002 11.0374C7.73002 11.2464 7.54244 11.6055 7.36559 11.7341C7.23161 11.8359 7.13514 11.8413 6.01506 11.8413C4.89497 11.8413 4.79851 11.8359 4.66452 11.7341C4.48767 11.6055 4.3001 11.2464 4.3001 11.0374C4.3001 10.8284 4.48767 10.4693 4.65916 10.346C4.87889 10.1853 5.10398 10.1585 6.14904 10.1692C7.04939 10.1799 7.12442 10.1906 7.31199 10.3032ZM12.4569 10.3032C12.6712 10.4372 12.8749 10.7909 12.8749 11.0374C12.8749 11.2464 12.6873 11.6055 12.5105 11.7341C12.3765 11.8359 12.28 11.8413 11.1599 11.8413C10.0399 11.8413 9.94339 11.8359 9.8094 11.7341C9.63255 11.6055 9.44497 11.2464 9.44497 11.0374C9.44497 10.8284 9.63255 10.4693 9.80404 10.346C10.0238 10.1853 10.2489 10.1585 11.2939 10.1692C12.1943 10.1799 12.2693 10.1906 12.4569 10.3032ZM17.6018 10.3032C17.8161 10.4372 18.0198 10.7909 18.0198 11.0374C18.0198 11.2464 17.8322 11.6055 17.6553 11.7341C17.5214 11.8359 17.4249 11.8413 16.3048 11.8413C15.1847 11.8413 15.0883 11.8359 14.9543 11.7341C14.7774 11.6055 14.5899 11.2464 14.5899 11.0374C14.5899 10.8284 14.7774 10.4693 14.9489 10.346C15.1687 10.1853 15.3937 10.1585 16.4388 10.1692C17.3392 10.1799 17.4142 10.1906 17.6018 10.3032ZM7.31199 14.5906C7.52636 14.7246 7.73002 15.0783 7.73002 15.3248C7.73002 15.5338 7.54244 15.8929 7.36559 16.0215C7.23161 16.1233 7.13514 16.1287 6.01506 16.1287C4.89497 16.1287 4.79851 16.1233 4.66452 16.0215C4.48767 15.8929 4.3001 15.5338 4.3001 15.3248C4.3001 15.1158 4.48767 14.7567 4.65916 14.6334C4.87889 14.4727 5.10398 14.4459 6.14904 14.4566C7.04939 14.4673 7.12442 14.478 7.31199 14.5906ZM12.4569 14.5906C12.6712 14.7246 12.8749 15.0783 12.8749 15.3248C12.8749 15.5338 12.6873 15.8929 12.5105 16.0215C12.3765 16.1233 12.28 16.1287 11.1599 16.1287C10.0399 16.1287 9.94339 16.1233 9.8094 16.0215C9.63255 15.8929 9.44497 15.5338 9.44497 15.3248C9.44497 15.1158 9.63255 14.7567 9.80404 14.6334C10.0238 14.4727 10.2489 14.4459 11.2939 14.4566C12.1943 14.4673 12.2693 14.478 12.4569 14.5906ZM17.6018 14.5906C17.8161 14.7246 18.0198 15.0783 18.0198 15.3248C18.0198 15.5338 17.8322 15.8929 17.6553 16.0215C17.5214 16.1233 17.4249 16.1287 16.3048 16.1287C15.1847 16.1287 15.0883 16.1233 14.9543 16.0215C14.7774 15.8929 14.5899 15.5338 14.5899 15.3248C14.5899 15.1158 14.7774 14.7567 14.9489 14.6334C15.1687 14.4727 15.3937 14.4459 16.4388 14.4566C17.3392 14.4673 17.4142 14.478 17.6018 14.5906ZM7.31199 18.878C7.52636 19.012 7.73002 19.3657 7.73002 19.6122C7.73002 19.8212 7.54244 20.1803 7.36559 20.3089C7.23161 20.4107 7.13514 20.4161 6.01506 20.4161C4.89497 20.4161 4.79851 20.4107 4.66452 20.3089C4.48767 20.1803 4.3001 19.8212 4.3001 19.6122C4.3001 19.4032 4.48767 19.0441 4.65916 18.9208C4.87889 18.7601 5.10398 18.7333 6.14904 18.744C7.04939 18.7547 7.12442 18.7654 7.31199 18.878ZM12.4569 18.878C12.6712 19.012 12.8749 19.3657 12.8749 19.6122C12.8749 19.8212 12.6873 20.1803 12.5105 20.3089C12.3765 20.4107 12.28 20.4161 11.1599 20.4161C10.0399 20.4161 9.94339 20.4107 9.8094 20.3089C9.63255 20.1803 9.44497 19.8212 9.44497 19.6122C9.44497 19.4032 9.63255 19.0441 9.80404 18.9208C10.0238 18.7601 10.2489 18.7333 11.2939 18.744C12.1943 18.7547 12.2693 18.7654 12.4569 18.878ZM17.6018 18.878C17.8161 19.012 18.0198 19.3657 18.0198 19.6122C18.0198 19.8212 17.8322 20.1803 17.6553 20.3089C17.5214 20.4107 17.4249 20.4161 16.3048 20.4161C15.1847 20.4161 15.0883 20.4107 14.9543 20.3089C14.7774 20.1803 14.5899 19.8212 14.5899 19.6122C14.5899 19.4032 14.7774 19.0441 14.9489 18.9208C15.1687 18.7601 15.3937 18.7333 16.4388 18.744C17.3392 18.7547 17.4142 18.7654 17.6018 18.878Z"
        fill="white" />
    <path
        d="M33.5725 0.0898438C34.9965 0.0898438 36.2482 0.383917 37.3276 0.972064C38.4069 1.55204 39.2414 2.39342 39.831 3.49619C40.4296 4.5908 40.7289 5.88145 40.7289 7.36816C40.7289 8.85486 40.4296 10.1455 39.831 11.2401C39.2414 12.3347 38.4069 13.1761 37.3276 13.7643C36.2482 14.3442 34.9965 14.6342 33.5725 14.6342H27.1643C26.8559 14.6342 26.6337 14.573 26.4977 14.4504C26.3707 14.3197 26.3072 14.1033 26.3072 13.801C26.3072 13.4988 26.3707 13.2864 26.4977 13.1639C26.6337 13.0332 26.8559 12.9678 27.1643 12.9678H28.6881V1.75626H27.1643C26.8559 1.75626 26.6337 1.69499 26.4977 1.57246C26.3707 1.44176 26.3072 1.22529 26.3072 0.923051C26.3072 0.620809 26.3707 0.408423 26.4977 0.285893C26.6337 0.155193 26.8559 0.0898438 27.1643 0.0898438H33.5725ZM30.7289 12.9678H33.2596C34.3389 12.9678 35.2777 12.7554 36.0759 12.3306C36.8741 11.8977 37.4908 11.2646 37.9262 10.4314C38.3616 9.59004 38.5793 8.56896 38.5793 7.36816C38.5793 6.16736 38.3616 5.15035 37.9262 4.31715C37.4908 3.47577 36.8741 2.83861 36.0759 2.40567C35.2777 1.97273 34.3389 1.75626 33.2596 1.75626H30.7289V12.9678Z"
        fill="white" />
    <path
        d="M50.6337 0.0898438C50.9965 0.0898438 51.2868 0.155193 51.5045 0.285893C51.7312 0.408423 51.899 0.608556 52.0079 0.886292L56.8106 12.9678H57.6405C57.9489 12.9678 58.1666 13.0332 58.2936 13.1639C58.4296 13.2864 58.4977 13.4988 58.4977 13.801C58.4977 14.1033 58.4296 14.3197 58.2936 14.4504C58.1666 14.573 57.9489 14.6342 57.6405 14.6342H52.8242C52.5158 14.6342 52.2936 14.573 52.1575 14.4504C52.0305 14.3197 51.967 14.1033 51.967 13.801C51.967 13.4988 52.0305 13.2864 52.1575 13.1639C52.2936 13.0332 52.5158 12.9678 52.8242 12.9678H54.6609L53.5453 10.0516H46.9466L45.8174 12.9678H47.4636C47.772 12.9678 47.9897 13.0332 48.1167 13.1639C48.2528 13.2864 48.3208 13.4988 48.3208 13.801C48.3208 14.1033 48.2528 14.3197 48.1167 14.4504C47.9897 14.573 47.772 14.6342 47.4636 14.6342H42.9194C42.611 14.6342 42.3888 14.573 42.2528 14.4504C42.1258 14.3197 42.0623 14.1033 42.0623 13.801C42.0623 13.4988 42.1258 13.2864 42.2528 13.1639C42.3888 13.0332 42.611 12.9678 42.9194 12.9678H43.6813L48.1847 1.75626H45.6405C45.3321 1.75626 45.1099 1.69499 44.9738 1.57246C44.8469 1.44176 44.7834 1.22529 44.7834 0.923051C44.7834 0.620809 44.8469 0.408423 44.9738 0.285893C45.1099 0.155193 45.3321 0.0898438 45.6405 0.0898438H50.6337ZM50.1303 1.75626L47.5861 8.38516H52.9194L50.3888 1.75626H50.1303Z"
        fill="white" />
    <path
        d="M72.8242 0.0898438C73.1326 0.0898438 73.3503 0.155193 73.4772 0.285893C73.6133 0.408423 73.6813 0.620809 73.6813 0.923051V5.54245C73.6813 5.82836 73.6042 6.03257 73.45 6.15511C73.2958 6.27764 73.0328 6.3389 72.6609 6.3389C72.289 6.3389 72.026 6.27764 71.8718 6.15511C71.7176 6.03257 71.6405 5.82836 71.6405 5.54245V1.75626H68.0079V12.9678H71.2187C71.5271 12.9678 71.7448 13.0332 71.8718 13.1639C72.0079 13.2864 72.0759 13.4988 72.0759 13.801C72.0759 14.1033 72.0079 14.3197 71.8718 14.4504C71.7448 14.573 71.5271 14.6342 71.2187 14.6342H62.7562C62.4478 14.6342 62.2255 14.573 62.0895 14.4504C61.9625 14.3197 61.899 14.1033 61.899 13.801C61.899 13.4988 61.9625 13.2864 62.0895 13.1639C62.2255 13.0332 62.4478 12.9678 62.7562 12.9678H65.967V1.75626H62.3344V5.54245C62.3344 5.82836 62.2573 6.03257 62.1031 6.15511C61.9489 6.27764 61.6859 6.3389 61.314 6.3389C60.9421 6.3389 60.6791 6.27764 60.5249 6.15511C60.3707 6.03257 60.2936 5.82836 60.2936 5.54245V0.923051C60.2936 0.620809 60.3571 0.408423 60.484 0.285893C60.6201 0.155193 60.8423 0.0898438 61.1507 0.0898438H72.8242Z"
        fill="white" />
    <path
        d="M89.2868 9.36541C89.6586 9.36541 89.9217 9.42667 90.0759 9.5492C90.2301 9.67173 90.3072 9.87595 90.3072 10.1619V13.801C90.3072 14.1033 90.2391 14.3197 90.1031 14.4504C89.9761 14.573 89.7584 14.6342 89.45 14.6342H77.2868C76.9784 14.6342 76.7562 14.573 76.6201 14.4504C76.4931 14.3197 76.4296 14.1033 76.4296 13.801C76.4296 13.4988 76.4931 13.2864 76.6201 13.1639C76.7562 13.0332 76.9784 12.9678 77.2868 12.9678H78.6745V1.75626H77.2868C76.9784 1.75626 76.7562 1.69499 76.6201 1.57246C76.4931 1.44176 76.4296 1.22529 76.4296 0.923051C76.4296 0.620809 76.4931 0.408423 76.6201 0.285893C76.7562 0.155193 76.9784 0.0898438 77.2868 0.0898438H89.1779C89.4863 0.0898438 89.704 0.155193 89.831 0.285893C89.967 0.408423 90.0351 0.620809 90.0351 0.923051V4.03533C90.0351 4.32123 89.958 4.52545 89.8038 4.64798C89.6496 4.77051 89.3865 4.83178 89.0147 4.83178C88.6428 4.83178 88.3797 4.77051 88.2255 4.64798C88.0713 4.52545 87.9942 4.32123 87.9942 4.03533V1.75626H80.7153V6.30214H84.2255V5.18711C84.2255 4.90121 84.2936 4.69699 84.4296 4.57446C84.5748 4.45193 84.8287 4.39067 85.1915 4.39067C85.5543 4.39067 85.8038 4.45193 85.9398 4.57446C86.085 4.69699 86.1575 4.90121 86.1575 5.18711V9.08358C86.1575 9.36949 86.085 9.57371 85.9398 9.69624C85.8038 9.81877 85.5543 9.88003 85.1915 9.88003C84.8287 9.88003 84.5748 9.81877 84.4296 9.69624C84.2936 9.57371 84.2255 9.36949 84.2255 9.08358V7.96856H80.7153V12.9678H88.2664V10.1619C88.2664 9.87595 88.3435 9.67173 88.4977 9.5492C88.6518 9.42667 88.9149 9.36541 89.2868 9.36541Z"
        fill="white" />
    <path
        d="M30.9586 18.2366C31.1029 18.2366 31.2049 18.2604 31.2648 18.3079C31.3246 18.3555 31.3545 18.4347 31.3545 18.5457V20.1148C31.3545 20.2257 31.3246 20.305 31.2648 20.3525C31.2049 20.4001 31.1029 20.4238 30.9586 20.4238C30.8142 20.4238 30.7122 20.4001 30.6523 20.3525C30.5925 20.305 30.5626 20.2257 30.5626 20.1148C30.5626 19.8992 30.508 19.7027 30.3989 19.5252C30.2933 19.3477 30.1296 19.2066 29.9079 19.102C29.6862 18.9942 29.4116 18.9403 29.0843 18.9403C28.7041 18.9403 28.3662 19.0307 28.0706 19.2114C27.7784 19.392 27.5497 19.6504 27.3842 19.9864C27.2223 20.3224 27.1414 20.7155 27.1414 21.1656C27.1414 21.6157 27.2188 22.0088 27.3737 22.3448C27.5285 22.6777 27.7485 22.9344 28.0336 23.1151C28.3187 23.2958 28.6513 23.3861 29.0315 23.3861C29.3799 23.3861 29.7126 23.3402 30.0293 23.2482C30.3461 23.1563 30.6312 23.0232 30.8846 22.8488C30.9445 22.8044 31.0096 22.7823 31.08 22.7823C31.1856 22.7823 31.2789 22.8441 31.3598 22.9677C31.4232 23.0628 31.4548 23.1468 31.4548 23.2197C31.4548 23.3148 31.4003 23.3972 31.2912 23.467C30.9638 23.673 30.6066 23.8283 30.2194 23.9329C29.8357 24.0375 29.4398 24.0898 29.0315 24.0898C28.4824 24.0898 28.0019 23.9694 27.5901 23.7285C27.1818 23.4844 26.8651 23.142 26.6398 22.7014C26.418 22.2608 26.3072 21.7489 26.3072 21.1656C26.3072 20.5855 26.4216 20.0752 26.6504 19.6345C26.8791 19.1908 27.1994 18.8468 27.6112 18.6027C28.0266 18.3587 28.5 18.2366 29.0315 18.2366C29.3623 18.2366 29.6562 18.2873 29.9132 18.3888C30.1701 18.4902 30.3866 18.6344 30.5626 18.8215V18.5457C30.5626 18.4347 30.5925 18.3555 30.6523 18.3079C30.7122 18.2604 30.8142 18.2366 30.9586 18.2366Z"
        fill="white" />
    <path
        d="M35.5466 18.3412C35.6874 18.3412 35.8 18.3666 35.8845 18.4173C35.9725 18.4648 36.0376 18.5425 36.0798 18.6503L37.9435 23.3386H38.2656C38.3853 23.3386 38.4697 23.3639 38.519 23.4147C38.5718 23.4622 38.5982 23.5446 38.5982 23.6619C38.5982 23.7792 38.5718 23.8632 38.519 23.9139C38.4697 23.9615 38.3853 23.9852 38.2656 23.9852H36.3966C36.2769 23.9852 36.1907 23.9615 36.1379 23.9139C36.0886 23.8632 36.064 23.7792 36.064 23.6619C36.064 23.5446 36.0886 23.4622 36.1379 23.4147C36.1907 23.3639 36.2769 23.3386 36.3966 23.3386H37.1094L36.6764 22.2069H34.1158L33.6776 23.3386H34.3164C34.4361 23.3386 34.5206 23.3639 34.5698 23.4147C34.6226 23.4622 34.649 23.5446 34.649 23.6619C34.649 23.7792 34.6226 23.8632 34.5698 23.9139C34.5206 23.9615 34.4361 23.9852 34.3164 23.9852H32.553C32.4333 23.9852 32.3471 23.9615 32.2943 23.9139C32.245 23.8632 32.2204 23.7792 32.2204 23.6619C32.2204 23.5446 32.245 23.4622 32.2943 23.4147C32.3471 23.3639 32.4333 23.3386 32.553 23.3386H32.8487L34.5962 18.9879H33.6089C33.4893 18.9879 33.403 18.9641 33.3502 18.9166C33.301 18.8658 33.2763 18.7818 33.2763 18.6646C33.2763 18.5473 33.301 18.4648 33.3502 18.4173C33.403 18.3666 33.4893 18.3412 33.6089 18.3412H35.5466ZM35.3512 18.9879L34.3639 21.5603H36.4336L35.4515 18.9879H35.3512Z"
        fill="white" />
    <path
        d="M42.3309 18.3412C42.4506 18.3412 42.5351 18.3666 42.5844 18.4173C42.6372 18.4648 42.6636 18.5473 42.6636 18.6646C42.6636 18.7818 42.6372 18.8658 42.5844 18.9166C42.5351 18.9641 42.4506 18.9879 42.3309 18.9879H41.0533V23.3386H43.6667V21.7742C43.6667 21.6633 43.6966 21.584 43.7564 21.5365C43.8163 21.4889 43.9183 21.4652 44.0627 21.4652C44.207 21.4652 44.309 21.4889 44.3689 21.5365C44.4287 21.584 44.4586 21.6633 44.4586 21.7742V23.6619C44.4586 23.7792 44.4322 23.8632 44.3794 23.9139C44.3302 23.9615 44.2457 23.9852 44.126 23.9852H39.406C39.2863 23.9852 39.2001 23.9615 39.1473 23.9139C39.098 23.8632 39.0734 23.7792 39.0734 23.6619C39.0734 23.5446 39.098 23.4622 39.1473 23.4147C39.2001 23.3639 39.2863 23.3386 39.406 23.3386H40.2613V18.9879H39.406C39.2863 18.9879 39.2001 18.9641 39.1473 18.9166C39.098 18.8658 39.0734 18.7818 39.0734 18.6646C39.0734 18.5473 39.098 18.4648 39.1473 18.4173C39.2001 18.3666 39.2863 18.3412 39.406 18.3412H42.3309Z"
        fill="white" />
    <path
        d="M50.4088 18.2366C50.5531 18.2366 50.6552 18.2604 50.715 18.3079C50.7749 18.3555 50.8048 18.4347 50.8048 18.5457V20.1148C50.8048 20.2257 50.7749 20.305 50.715 20.3525C50.6552 20.4001 50.5531 20.4238 50.4088 20.4238C50.2645 20.4238 50.1624 20.4001 50.1026 20.3525C50.0427 20.305 50.0128 20.2257 50.0128 20.1148C50.0128 19.8992 49.9583 19.7027 49.8492 19.5252C49.7436 19.3477 49.5799 19.2066 49.3582 19.102C49.1364 18.9942 48.8619 18.9403 48.5345 18.9403C48.1544 18.9403 47.8165 19.0307 47.5208 19.2114C47.2287 19.392 46.9999 19.6504 46.8345 19.9864C46.6726 20.3224 46.5916 20.7155 46.5916 21.1656C46.5916 21.6157 46.6691 22.0088 46.8239 22.3448C46.9788 22.6777 47.1988 22.9344 47.4839 23.1151C47.769 23.2958 48.1016 23.3861 48.4817 23.3861C48.8302 23.3861 49.1628 23.3402 49.4796 23.2482C49.7964 23.1563 50.0815 23.0232 50.3349 22.8488C50.3947 22.8044 50.4598 22.7823 50.5302 22.7823C50.6358 22.7823 50.7291 22.8441 50.8101 22.9677C50.8734 23.0628 50.9051 23.1468 50.9051 23.2197C50.9051 23.3148 50.8505 23.3972 50.7414 23.467C50.4141 23.673 50.0568 23.8283 49.6697 23.9329C49.286 24.0375 48.89 24.0898 48.4817 24.0898C47.9327 24.0898 47.4522 23.9694 47.0404 23.7285C46.6321 23.4844 46.3153 23.142 46.09 22.7014C45.8683 22.2608 45.7574 21.7489 45.7574 21.1656C45.7574 20.5855 45.8718 20.0752 46.1006 19.6345C46.3294 19.1908 46.6497 18.8468 47.0615 18.6027C47.4768 18.3587 47.9502 18.2366 48.4817 18.2366C48.8126 18.2366 49.1065 18.2873 49.3634 18.3888C49.6204 18.4902 49.8368 18.6344 50.0128 18.8215V18.5457C50.0128 18.4347 50.0427 18.3555 50.1026 18.3079C50.1624 18.2604 50.2645 18.2366 50.4088 18.2366Z"
        fill="white" />
    <path
        d="M57.3991 18.3412C57.5187 18.3412 57.6032 18.3666 57.6525 18.4173C57.7053 18.4648 57.7317 18.5473 57.7317 18.6646C57.7317 18.7818 57.7053 18.8658 57.6525 18.9166C57.6032 18.9641 57.5187 18.9879 57.3991 18.9879H57.0717V22.1166C57.0717 22.7791 56.8781 23.2736 56.491 23.6001C56.1073 23.9266 55.5635 24.0898 54.8596 24.0898C54.1556 24.0898 53.61 23.9266 53.2229 23.6001C52.8392 23.2736 52.6474 22.7791 52.6474 22.1166V18.9879H52.32C52.2004 18.9879 52.1141 18.9641 52.0613 18.9166C52.0121 18.8658 51.9874 18.7818 51.9874 18.6646C51.9874 18.5473 52.0121 18.4648 52.0613 18.4173C52.1141 18.3666 52.2004 18.3412 52.32 18.3412H54.0307C54.1503 18.3412 54.2348 18.3666 54.2841 18.4173C54.3369 18.4648 54.3633 18.5473 54.3633 18.6646C54.3633 18.7818 54.3369 18.8658 54.2841 18.9166C54.2348 18.9641 54.1503 18.9879 54.0307 18.9879H53.4393V22.0215C53.4393 22.5065 53.5537 22.8552 53.7825 23.0676C54.0113 23.2799 54.3703 23.3861 54.8596 23.3861C55.3488 23.3861 55.7078 23.2799 55.9366 23.0676C56.1654 22.8552 56.2798 22.5065 56.2798 22.0215V18.9879H55.6885C55.5688 18.9879 55.4826 18.9641 55.4298 18.9166C55.3805 18.8658 55.3558 18.7818 55.3558 18.6646C55.3558 18.5473 55.3805 18.4648 55.4298 18.4173C55.4826 18.3666 55.5688 18.3412 55.6885 18.3412H57.3991Z"
        fill="white" />
    <path
        d="M61.7812 18.3412C61.9009 18.3412 61.9853 18.3666 62.0346 18.4173C62.0874 18.4648 62.1138 18.5473 62.1138 18.6646C62.1138 18.7818 62.0874 18.8658 62.0346 18.9166C61.9853 18.9641 61.9009 18.9879 61.7812 18.9879H60.5035V23.3386H63.1169V21.7742C63.1169 21.6633 63.1469 21.584 63.2067 21.5365C63.2665 21.4889 63.3686 21.4652 63.5129 21.4652C63.6572 21.4652 63.7593 21.4889 63.8191 21.5365C63.879 21.584 63.9089 21.6633 63.9089 21.7742V23.6619C63.9089 23.7792 63.8825 23.8632 63.8297 23.9139C63.7804 23.9615 63.6959 23.9852 63.5763 23.9852H58.8563C58.7366 23.9852 58.6504 23.9615 58.5976 23.9139C58.5483 23.8632 58.5236 23.7792 58.5236 23.6619C58.5236 23.5446 58.5483 23.4622 58.5976 23.4147C58.6504 23.3639 58.7366 23.3386 58.8563 23.3386H59.7116V18.9879H58.8563C58.7366 18.9879 58.6504 18.9641 58.5976 18.9166C58.5483 18.8658 58.5236 18.7818 58.5236 18.6646C58.5236 18.5473 58.5483 18.4648 58.5976 18.4173C58.6504 18.3666 58.7366 18.3412 58.8563 18.3412H61.7812Z"
        fill="white" />
    <path
        d="M67.9637 18.3412C68.1045 18.3412 68.2171 18.3666 68.3016 18.4173C68.3896 18.4648 68.4547 18.5425 68.4969 18.6503L70.3606 23.3386H70.6827C70.8024 23.3386 70.8868 23.3639 70.9361 23.4147C70.9889 23.4622 71.0153 23.5446 71.0153 23.6619C71.0153 23.7792 70.9889 23.8632 70.9361 23.9139C70.8868 23.9615 70.8024 23.9852 70.6827 23.9852H68.8137C68.694 23.9852 68.6078 23.9615 68.555 23.9139C68.5057 23.8632 68.4811 23.7792 68.4811 23.6619C68.4811 23.5446 68.5057 23.4622 68.555 23.4147C68.6078 23.3639 68.694 23.3386 68.8137 23.3386H69.5264L69.0935 22.2069H66.5329L66.0947 23.3386H66.7335C66.8532 23.3386 66.9377 23.3639 66.9869 23.4147C67.0397 23.4622 67.0661 23.5446 67.0661 23.6619C67.0661 23.7792 67.0397 23.8632 66.9869 23.9139C66.9377 23.9615 66.8532 23.9852 66.7335 23.9852H64.9701C64.8504 23.9852 64.7642 23.9615 64.7114 23.9139C64.6621 23.8632 64.6375 23.7792 64.6375 23.6619C64.6375 23.5446 64.6621 23.4622 64.7114 23.4147C64.7642 23.3639 64.8504 23.3386 64.9701 23.3386H65.2658L67.0133 18.9879H66.026C65.9064 18.9879 65.8201 18.9641 65.7673 18.9166C65.7181 18.8658 65.6934 18.7818 65.6934 18.6646C65.6934 18.5473 65.7181 18.4648 65.7673 18.4173C65.8201 18.3666 65.9064 18.3412 66.026 18.3412H67.9637ZM67.7683 18.9879L66.781 21.5603H68.8506L67.8686 18.9879H67.7683Z"
        fill="white" />
    <path
        d="M76.5748 18.3412C76.6945 18.3412 76.7789 18.3666 76.8282 18.4173C76.881 18.4648 76.9074 18.5473 76.9074 18.6646V20.4571C76.9074 20.5681 76.8775 20.6473 76.8176 20.6949C76.7578 20.7424 76.6557 20.7662 76.5114 20.7662C76.3671 20.7662 76.2651 20.7424 76.2052 20.6949C76.1454 20.6473 76.1155 20.5681 76.1155 20.4571V18.9879H74.7058V23.3386H75.9518C76.0715 23.3386 76.1559 23.3639 76.2052 23.4147C76.258 23.4622 76.2844 23.5446 76.2844 23.6619C76.2844 23.7792 76.258 23.8632 76.2052 23.9139C76.1559 23.9615 76.0715 23.9852 75.9518 23.9852H72.6678C72.5482 23.9852 72.4619 23.9615 72.4091 23.9139C72.3599 23.8632 72.3352 23.7792 72.3352 23.6619C72.3352 23.5446 72.3599 23.4622 72.4091 23.4147C72.4619 23.3639 72.5482 23.3386 72.6678 23.3386H73.9138V18.9879H72.5042V20.4571C72.5042 20.5681 72.4742 20.6473 72.4144 20.6949C72.3546 20.7424 72.2525 20.7662 72.1082 20.7662C71.9639 20.7662 71.8618 20.7424 71.802 20.6949C71.7421 20.6473 71.7122 20.5681 71.7122 20.4571V18.6646C71.7122 18.5473 71.7369 18.4648 71.7861 18.4173C71.8389 18.3666 71.9252 18.3412 72.0448 18.3412H76.5748Z"
        fill="white" />
    <path
        d="M80.7932 18.2366C81.3423 18.2366 81.8263 18.3587 82.2451 18.6027C82.6675 18.8468 82.9931 19.1908 83.2219 19.6345C83.4542 20.0752 83.5703 20.5855 83.5703 21.1656C83.5703 21.7457 83.4542 22.2576 83.2219 22.7014C82.9931 23.142 82.6675 23.4844 82.2451 23.7285C81.8263 23.9694 81.3423 24.0898 80.7932 24.0898C80.2441 24.0898 79.7584 23.9694 79.336 23.7285C78.9172 23.4844 78.5916 23.142 78.3593 22.7014C78.1305 22.2576 78.0161 21.7457 78.0161 21.1656C78.0161 20.5855 78.1305 20.0752 78.3593 19.6345C78.5916 19.1908 78.9172 18.8468 79.336 18.6027C79.7584 18.3587 80.2441 18.2366 80.7932 18.2366ZM80.7932 18.9403C80.4061 18.9403 80.0646 19.0307 79.769 19.2114C79.4768 19.392 79.2498 19.6504 79.0879 19.9864C78.9295 20.3224 78.8503 20.7155 78.8503 21.1656C78.8503 21.6157 78.9295 22.0088 79.0879 22.3448C79.2498 22.6777 79.4768 22.9344 79.769 23.1151C80.0646 23.2958 80.4061 23.3861 80.7932 23.3861C81.1804 23.3861 81.5201 23.2958 81.8122 23.1151C82.1079 22.9344 82.3349 22.6777 82.4933 22.3448C82.6552 22.0088 82.7361 21.6157 82.7361 21.1656C82.7361 20.7155 82.6552 20.3224 82.4933 19.9864C82.3349 19.6504 82.1079 19.392 81.8122 19.2114C81.5201 19.0307 81.1804 18.9403 80.7932 18.9403Z"
        fill="white" />
    <path
        d="M87.4614 18.3412C87.9014 18.3412 88.278 18.4078 88.5913 18.5409C88.9081 18.6741 89.1474 18.8611 89.3093 19.102C89.4747 19.3429 89.5575 19.6234 89.5575 19.9436C89.5575 20.305 89.4272 20.6109 89.1668 20.8613C88.9063 21.1117 88.5491 21.2829 88.095 21.3748C88.2921 21.4446 88.4558 21.5571 88.586 21.7124C88.6951 21.8424 88.7884 21.9723 88.8658 22.1023C88.9433 22.2291 89.0295 22.386 89.1245 22.573C89.2231 22.7664 89.2988 22.9075 89.3516 22.9962C89.4888 23.2245 89.6472 23.3386 89.8267 23.3386H89.9746C90.0942 23.3386 90.1787 23.3639 90.228 23.4147C90.2808 23.4622 90.3072 23.5446 90.3072 23.6619C90.3072 23.7792 90.2808 23.8632 90.228 23.9139C90.1787 23.9615 90.0942 23.9852 89.9746 23.9852H89.5944C89.3832 23.9852 89.2037 23.9361 89.0559 23.8378C88.9116 23.7364 88.7708 23.5652 88.6335 23.3243C88.5561 23.1848 88.4611 23.001 88.3484 22.7727C88.2428 22.5635 88.1566 22.4019 88.0897 22.2878C88.0264 22.1705 87.9489 22.0548 87.8574 21.9406C87.7518 21.8075 87.6251 21.7077 87.4773 21.6411C87.3294 21.5714 87.1517 21.5365 86.944 21.5365H86.226V23.3386H86.9124C87.032 23.3386 87.1165 23.3639 87.1658 23.4147C87.2186 23.4622 87.245 23.5446 87.245 23.6619C87.245 23.7792 87.2186 23.8632 87.1658 23.9139C87.1165 23.9615 87.032 23.9852 86.9124 23.9852H84.7899C84.6703 23.9852 84.584 23.9615 84.5312 23.9139C84.482 23.8632 84.4573 23.7792 84.4573 23.6619C84.4573 23.5446 84.482 23.4622 84.5312 23.4147C84.584 23.3639 84.6703 23.3386 84.7899 23.3386H85.4341V18.9879H84.7899C84.6703 18.9879 84.584 18.9641 84.5312 18.9166C84.482 18.8658 84.4573 18.7818 84.4573 18.6646C84.4573 18.5473 84.482 18.4648 84.5312 18.4173C84.584 18.3666 84.6703 18.3412 84.7899 18.3412H87.4614ZM86.226 20.8898H87.2978C88.2481 20.8898 88.7233 20.5744 88.7233 19.9436C88.7233 19.6393 88.6036 19.4047 88.3643 19.2399C88.1249 19.0719 87.787 18.9879 87.3506 18.9879H86.226V20.8898Z"
        fill="white" />
</svg>
    